Patient4_TMGait_0pt2_02_right_24_GRF.mot
version=1
nRows=32
nColumns=19
inDegrees=no
endheader
time	F1x	F1y	F1z	M1x	M1y	M1z	F2x	F2y	F2z	M2x	M2y	M2z	EC1x	EC1y	EC1z	EC2x	EC2y	EC2z
52.81	-18.6765	697.4621	42.4944	-242.4694	-62.8571	875.4309	14.3112	22.5695	0.7636	9.4832	-6.7237	26.7925	-0.0592	0.0182	-0.0073	-0.0462	0.0165	0.9585
52.8321	-17.8655	709.3474	43.6542	-246.6929	-63.5895	889.8808	13.0921	19.7531	0.42506	8.1081	-5.6722	23.3791	-0.0592	0.0182	-0.0073	-0.0462	0.0165	0.9585
52.8541	-16.7699	723.8394	45.5463	-251.7121	-65.0364	907.3536	11.0973	16.1878	0.20926	6.5055	-4.5129	19.1369	-0.0592	0.0182	-0.0073	-0.0462	0.0165	0.9585
52.8762	-15.4223	739.9642	48.2615	-257.1381	-67.34	926.7099	8.6	12.3473	0.097541	4.8658	-3.334	14.6162	-0.0592	0.0182	-0.0073	-0.0462	0.0165	0.9585
52.8983	-13.9438	756.7559	51.7538	-262.6039	-70.5069	946.8424	5.998	8.7359	0.049854	3.3738	-2.2354	10.3918	-0.0592	0.0182	-0.0073	-0.0462	0.0165	0.9585
52.9204	-12.4908	773.6493	55.8583	-267.9111	-74.4066	967.1026	3.6506	5.7157	0.037349	2.1538	-1.3106	6.8676	-0.0592	0.0182	-0.0073	-0.0462	0.0165	0.9585
52.9424	-11.1711	790.4758	60.3323	-273.0293	-78.788	987.2506	1.7695	3.435	0.048957	1.2495	-0.61476	4.2022	-0.0592	0.0182	-0.0073	-0.0462	0.0165	0.9585
52.9645	-10.0211	807.0507	64.8888	-277.9482	-83.3105	1006.9545	0.41174	1.8578	0.078425	0.6372	-0.151	2.3484	-0.0592	0.0182	-0.0073	-0.0462	0.0165	0.9585
52.9866	-9.0203	822.6407	69.2079	-282.4871	-87.5699	1025.1819	-0.46298	0.8405	0.12159	0.25377	0.10786	1.1367	-0.0592	0.0182	-0.0073	-0.0462	0.0165	0.9585
53.0086	-8.1048	835.7971	72.9347	-286.2242	-91.1076	1040.0311	-0.94179	0.18479	0.17633	0.018599	0.20073	0.33047	-0.0592	0.0182	-0.0073	-0.0462	0.0165	0.9585
53.0307	-7.1671	844.695	75.7048	-288.6067	-93.4448	1049.1678	-1.125	-0.3202	0.24096	-0.15156	0.17062	-0.33014	-0.0592	0.0182	-0.0073	-0.0462	0.0165	0.9585
53.0528	-6.0613	847.7464	77.2172	-289.1546	-94.1698	1050.5796	-1.1068	-0.86874	0.31483	-0.33352	0.055955	-1.0862	-0.0592	0.0182	-0.0073	-0.0462	0.0165	0.9585
53.0749	-4.6207	844.2056	77.3109	-287.6595	-93.0378	1043.3186	-0.96625	-1.6186	0.39249	-0.58948	-0.10762	-2.1311	-0.0592	0.0182	-0.0073	-0.0462	0.0165	0.9585
53.0969	-2.6778	834.428	76.0161	-284.2678	-90.0397	1027.8222	-0.77019	-2.6686	0.4616	-0.95963	-0.28064	-3.5804	-0.0592	0.0182	-0.0073	-0.0462	0.0165	0.9585
53.119	-0.085174	819.792	73.5404	-279.4494	-85.3903	1005.809	-0.57615	-4.0312	0.50453	-1.4533	-0.41698	-5.4357	-0.0592	0.0182	-0.0073	-0.0462	0.0165	0.9585
53.1411	3.2512	802.3285	70.2231	-273.8724	-79.4804	979.825	-0.43417	-5.5945	0.49357	-2.0345	-0.45956	-7.5299	-0.0592	0.0182	-0.0073	-0.0462	0.0165	0.9585
53.1631	7.3156	784.1556	66.481	-268.2129	-72.8256	952.5692	-0.39526	-7.0794	0.38844	-2.6053	-0.33624	-9.4647	-0.0592	0.0182	-0.0073	-0.0462	0.0165	0.9585
53.1852	11.9576	766.9795	62.732	-262.9895	-65.9809	926.2906	-0.5156	-7.9797	0.13573	-2.9842	0.044837	-10.5324	-0.0592	0.0182	-0.0073	-0.0462	0.0165	0.9585
53.2073	16.9089	751.7614	59.3117	-258.4619	-59.4404	902.3711	-0.85914	-7.5133	-0.32506	-2.8859	0.79355	-9.6551	-0.0592	0.0182	-0.0073	-0.0462	0.0165	0.9585
53.2294	21.8485	738.6023	56.4283	-254.6007	-53.5707	881.1551	-1.4945	-4.5963	-1.0493	-1.9105	2.0189	-5.3479	-0.0592	0.0182	-0.0073	-0.0462	0.0165	0.9585
53.2514	26.4658	726.7658	54.1811	-251.0984	-48.6097	861.9575	-2.4802	2.1364	-2.0693	0.45008	3.7991	4.2421	-0.0592	0.0182	-0.0073	-0.0462	0.0165	0.9585
53.2735	30.488	714.79	52.5819	-247.412	-44.6783	843.1914	-3.8434	14.2173	-3.366	4.7729	6.1335	21.1606	-0.0592	0.0182	-0.0073	-0.0462	0.0165	0.9585
53.2956	33.7033	700.7237	51.562	-242.8442	-41.7809	822.6429	-5.5446	33.0894	-4.8326	11.6141	8.8794	47.2851	-0.0592	0.0182	-0.0073	-0.0462	0.0165	0.9585
53.3176	35.9728	682.4964	50.9746	-236.6696	-39.8064	797.9273	-7.4708	59.7026	-6.2565	21.3639	11.7234	83.767	-0.0592	0.0182	-0.0073	-0.0462	0.0165	0.9585
53.3397	37.2343	658.3821	50.5841	-228.2965	-38.5208	767.053	-9.7772	94.467	-7.6181	34.2059	14.7092	130.9793	-0.0592	0.0182	-0.0073	-0.0462	0.0165	0.9585
53.3618	37.4728	627.2767	50.099	-217.3616	-37.6145	728.7524	-12.8416	137.2183	-9.2821	50.082	18.4646	188.5273	-0.0592	0.0182	-0.0073	-0.0462	0.0165	0.9585
53.3839	36.6934	588.7084	49.2112	-203.7315	-36.7566	682.4932	-16.6427	186.8647	-11.6877	68.5731	23.5508	254.7713	-0.0592	0.0182	-0.0073	-0.0462	0.0165	0.9585
53.4059	34.9819	542.9792	47.6373	-187.5483	-35.6147	628.6167	-20.815	241.4503	-15.0963	88.9341	30.1479	326.9437	-0.0592	0.0182	-0.0073	-0.0462	0.0165	0.9585
53.428	32.5754	491.353	45.2141	-169.2883	-33.9289	568.5196	-24.938	298.5563	-19.3307	110.2627	37.8355	401.7466	-0.0592	0.0182	-0.0073	-0.0462	0.0165	0.9585
53.4501	29.8651	436.1133	41.9565	-149.7759	-31.5718	504.7069	-28.6595	355.8988	-23.8543	131.7197	45.7536	476.1654	-0.0592	0.0182	-0.0073	-0.0462	0.0165	0.9585
53.4721	27.3007	380.1906	38.0266	-130.0561	-28.5431	440.39	-31.7397	411.648	-28.1465	152.6239	53.1027	547.8602	-0.0592	0.0182	-0.0073	-0.0462	0.0165	0.9585
53.4942	25.2785	326.4021	33.6621	-111.1331	-24.9288	378.6475	-34.0557	464.342	-31.9123	172.4036	59.4151	615.0272	-0.0592	0.0182	-0.0073	-0.0462	0.0165	0.9585
